<?xml version="1.0" encoding="UTF-8"?>
<!DOCTYPE svg PUBLIC "-//W3C//DTD SVG 1.1//EN" "http://www.w3.org/Graphics/SVG/1.1/DTD/svg11.dtd">
<svg xmlns="http://www.w3.org/2000/svg" version="1.1" width="263px" height="263px" style="shape-rendering:geometricPrecision; text-rendering:geometricPrecision; image-rendering:optimizeQuality; fill-rule:evenodd; clip-rule:evenodd" xmlns:xlink="http://www.w3.org/1999/xlink">
<g><path style="opacity:0.988" fill="#09aef3" d="M 233.5,-0.5 C 237.833,-0.5 242.167,-0.5 246.5,-0.5C 254.566,2.56708 259.9,8.23374 262.5,16.5C 262.5,20.5 262.5,24.5 262.5,28.5C 257.546,43.4841 247.213,49.4841 231.5,46.5C 216.816,62.0164 202.316,77.683 188,93.5C 189.665,102.506 187.998,110.839 183,118.5C 174.343,127.29 164.509,128.79 153.5,123C 144.88,115.69 141.88,106.523 144.5,95.5C 142.897,92.7204 141.063,90.0538 139,87.5C 130.052,78.4294 121.218,69.2627 112.5,60C 107.523,60.7697 102.523,60.603 97.5,59.5C 80.2101,77.9584 62.7101,96.2917 45,114.5C 44.3645,115.966 43.5312,117.3 42.5,118.5C 45.8834,136.098 38.8834,146.764 21.5,150.5C 10.609,149.259 3.27565,143.593 -0.5,133.5C -0.5,128.833 -0.5,124.167 -0.5,119.5C 4.63185,105.43 14.6318,99.9296 29.5,103C 47.4489,84.2623 65.2823,65.4289 83,46.5C 79.9519,33.9748 83.4519,23.8081 93.5,16C 108.814,9.98795 119.647,14.488 126,29.5C 126.781,34.5544 126.614,39.5544 125.5,44.5C 136.099,56.6889 146.933,68.6889 158,80.5C 163,77.8333 168,77.8333 173,80.5C 188.866,64.3017 204.366,47.8017 219.5,31C 215.631,16.5805 220.297,6.08052 233.5,-0.5 Z"/></g>
<g><path style="opacity:0.987" fill="#09aef3" d="M 262.5,129.5 C 262.5,133.5 262.5,137.5 262.5,141.5C 257.3,156.107 246.967,161.94 231.5,159C 216.866,175.302 201.866,191.302 186.5,207C 190.28,218.767 187.28,228.434 177.5,236C 166.914,241.48 157.414,239.98 149,231.5C 143.802,223.533 142.135,214.866 144,205.5C 133.833,194.667 123.667,183.833 113.5,173C 107.5,173.667 101.5,173.667 95.5,173C 78,191.833 60.5,210.667 43,229.5C 46.469,245.23 40.969,256.23 26.5,262.5C 22.8333,262.5 19.1667,262.5 15.5,262.5C 11.8075,260.562 8.30753,258.229 5,255.5C 2.8703,252.233 1.03697,248.9 -0.5,245.5C -0.5,240.833 -0.5,236.167 -0.5,231.5C 5.11286,218.11 14.9462,213.11 29,216.5C 47.5481,196.955 65.7148,177.121 83.5,157C 80.1807,139.444 87.1807,128.944 104.5,125.5C 122.68,129.17 129.846,140.17 126,158.5C 136.704,170.203 147.704,181.536 159,192.5C 164.163,191.503 169.33,191.336 174.5,192C 189.217,176.071 204.051,160.238 219,144.5C 215.948,132.655 219.115,122.822 228.5,115C 244.824,108.272 256.157,113.105 262.5,129.5 Z"/></g>
</svg>
