<?xml version="1.0" encoding="UTF-8"?>
<!DOCTYPE svg PUBLIC "-//W3C//DTD SVG 1.1//EN" "http://www.w3.org/Graphics/SVG/1.1/DTD/svg11.dtd">
<svg xmlns="http://www.w3.org/2000/svg" version="1.1" width="279px" height="279px" style="shape-rendering:geometricPrecision; text-rendering:geometricPrecision; image-rendering:optimizeQuality; fill-rule:evenodd; clip-rule:evenodd" xmlns:xlink="http://www.w3.org/1999/xlink">
<g><path style="opacity:0.981" fill="#08aef4" d="M 19.5,-0.5 C 44.5,-0.5 69.5,-0.5 94.5,-0.5C 105.708,2.54686 112.208,9.88019 114,21.5C 114.667,44.8333 114.667,68.1667 114,91.5C 111.818,104.348 104.318,111.848 91.5,114C 68.5,114.667 45.5,114.667 22.5,114C 10.3172,112.639 2.65049,106.139 -0.5,94.5C -0.5,69.5 -0.5,44.5 -0.5,19.5C 2.5,9.16667 9.16667,2.5 19.5,-0.5 Z M 21.5,15.5 C 45.169,15.3334 68.8357,15.5 92.5,16C 94.286,16.7845 95.786,17.9512 97,19.5C 98.6367,43.4369 98.9701,67.4369 98,91.5C 97.1667,95 95,97.1667 91.5,98C 68.5,98.6667 45.5,98.6667 22.5,98C 20.1523,97.6541 18.3189,96.4875 17,94.5C 15.3534,70.2543 15.02,45.921 16,21.5C 17.0209,18.6499 18.8542,16.6499 21.5,15.5 Z"/></g>
<g><path style="opacity:0.985" fill="#08aff4" d="M 218.5,-0.5 C 220.167,-0.5 221.833,-0.5 223.5,-0.5C 226.146,0.649863 227.979,2.64986 229,5.5C 229.5,19.8295 229.667,34.1628 229.5,48.5C 243.837,48.3334 258.171,48.5001 272.5,49C 274.968,49.9793 276.968,51.4793 278.5,53.5C 278.5,55.5 278.5,57.5 278.5,59.5C 277.404,61.1032 276.07,62.6032 274.5,64C 259.504,64.4999 244.504,64.6666 229.5,64.5C 229.667,78.8372 229.5,93.1705 229,107.5C 226.238,114.198 221.738,115.698 215.5,112C 214.874,111.25 214.374,110.416 214,109.5C 213.5,94.5037 213.333,79.5037 213.5,64.5C 198.496,64.6666 183.496,64.4999 168.5,64C 163.996,61.1632 162.829,57.3299 165,52.5C 166.319,50.5125 168.152,49.3459 170.5,49C 184.829,48.5001 199.163,48.3334 213.5,48.5C 213.333,33.8295 213.5,19.1629 214,4.5C 215.025,2.31305 216.525,0.646381 218.5,-0.5 Z"/></g>
<g><path style="opacity:0.981" fill="#08aef4" d="M 94.5,278.5 C 69.5,278.5 44.5,278.5 19.5,278.5C 9.16667,275.5 2.5,268.833 -0.5,258.5C -0.5,233.5 -0.5,208.5 -0.5,183.5C 2.54686,172.292 9.88019,165.792 21.5,164C 44.8333,163.333 68.1667,163.333 91.5,164C 104.348,166.182 111.848,173.682 114,186.5C 114.667,209.5 114.667,232.5 114,255.5C 112.639,267.683 106.139,275.35 94.5,278.5 Z M 22.5,179.5 C 45.5024,179.333 68.5024,179.5 91.5,180C 95,180.833 97.1667,183 98,186.5C 98.6667,209.5 98.6667,232.5 98,255.5C 97.6541,257.848 96.4875,259.681 94.5,261C 70.2543,262.647 45.921,262.98 21.5,262C 18.6667,261.167 16.8333,259.333 16,256.5C 15.3333,232.833 15.3333,209.167 16,185.5C 17.4361,182.558 19.6028,180.558 22.5,179.5 Z"/></g>
<g><path style="opacity:0.981" fill="#08aef3" d="M 278.5,183.5 C 278.5,208.5 278.5,233.5 278.5,258.5C 275.5,268.833 268.833,275.5 258.5,278.5C 233.5,278.5 208.5,278.5 183.5,278.5C 172.292,275.453 165.792,268.12 164,256.5C 163.333,233.167 163.333,209.833 164,186.5C 166.182,173.652 173.682,166.152 186.5,164C 209.5,163.333 232.5,163.333 255.5,164C 267.683,165.361 275.35,171.861 278.5,183.5 Z M 186.5,179.5 C 209.502,179.333 232.502,179.5 255.5,180C 257.848,180.346 259.681,181.513 261,183.5C 262.647,207.746 262.98,232.079 262,256.5C 261.167,259.333 259.333,261.167 256.5,262C 232.833,262.667 209.167,262.667 185.5,262C 183.714,261.215 182.214,260.049 181,258.5C 179.363,234.563 179.03,210.563 180,186.5C 181.018,182.985 183.185,180.652 186.5,179.5 Z"/></g>
</svg>
