<?xml version="1.0" encoding="UTF-8"?>
<!DOCTYPE svg PUBLIC "-//W3C//DTD SVG 1.1//EN" "http://www.w3.org/Graphics/SVG/1.1/DTD/svg11.dtd">
<svg xmlns="http://www.w3.org/2000/svg" version="1.1" width="263px" height="234px" style="shape-rendering:geometricPrecision; text-rendering:geometricPrecision; image-rendering:optimizeQuality; fill-rule:evenodd; clip-rule:evenodd" xmlns:xlink="http://www.w3.org/1999/xlink">
<g><path style="opacity:0.994" fill="#08aef3" d="M 21.5,-0.5 C 94.5,-0.5 167.5,-0.5 240.5,-0.5C 251.509,3.17531 258.842,10.5086 262.5,21.5C 262.5,84.8333 262.5,148.167 262.5,211.5C 258.859,222.474 251.526,229.807 240.5,233.5C 167.833,233.5 95.1667,233.5 22.5,233.5C 10.9126,230.246 3.24589,222.912 -0.5,211.5C -0.5,148.167 -0.5,84.8333 -0.5,21.5C 3.17531,10.4914 10.5086,3.15803 21.5,-0.5 Z M 38.5,29.5 C 47.4623,27.7303 53.6289,31.0636 57,39.5C 57.8333,52 52,57.8333 39.5,57C 29.4196,52.0922 26.9196,44.5922 32,34.5C 33.9651,32.4497 36.1318,30.783 38.5,29.5 Z M 82.5,29.5 C 93.3805,28.0519 99.7138,32.7186 101.5,43.5C 99.1351,55.3518 92.1351,59.5185 80.5,56C 73.0279,50.2269 71.5279,43.0602 76,34.5C 77.9651,32.4497 80.1318,30.783 82.5,29.5 Z M 126.5,29.5 C 143.137,29.6173 148.303,37.2839 142,52.5C 134.667,59.1667 127.333,59.1667 120,52.5C 114.553,42.6154 116.72,34.9487 126.5,29.5 Z M 29.5,87.5 C 97.1667,87.5 164.833,87.5 232.5,87.5C 232.667,123.168 232.5,158.835 232,194.5C 229.955,198.603 226.788,201.436 222.5,203C 161.5,203.667 100.5,203.667 39.5,203C 35.2116,201.436 32.045,198.603 30,194.5C 29.5,158.835 29.3333,123.168 29.5,87.5 Z"/></g>
</svg>
