<?xml version="1.0" encoding="UTF-8"?>
<!DOCTYPE svg PUBLIC "-//W3C//DTD SVG 1.1//EN" "http://www.w3.org/Graphics/SVG/1.1/DTD/svg11.dtd">
<svg xmlns="http://www.w3.org/2000/svg" version="1.1" width="262px" height="203px" style="shape-rendering:geometricPrecision; text-rendering:geometricPrecision; image-rendering:optimizeQuality; fill-rule:evenodd; clip-rule:evenodd" xmlns:xlink="http://www.w3.org/1999/xlink">
<g><path style="opacity:0.988" fill="#08aef4" d="M 214.5,-0.5 C 218.5,-0.5 222.5,-0.5 226.5,-0.5C 234.855,2.4863 239.688,8.4863 241,17.5C 241.5,34.8301 241.667,52.1635 241.5,69.5C 251.203,69.8752 257.87,74.5418 261.5,83.5C 261.5,87.8333 261.5,92.1667 261.5,96.5C 258.19,105.836 251.523,110.836 241.5,111.5C 241.667,128.503 241.5,145.503 241,162.5C 238.141,177.182 229.308,183.349 214.5,181C 181.053,167.777 147.72,154.277 114.5,140.5C 113.667,156.49 113.167,172.49 113,188.5C 110.313,195.019 105.813,199.686 99.5,202.5C 92.1667,202.5 84.8333,202.5 77.5,202.5C 72.3575,200.497 68.1908,197.163 65,192.5C 56.8333,174.833 48.6667,157.167 40.5,139.5C 30.2202,137.949 23.3868,132.282 20,122.5C 19.5034,120.19 19.3367,117.857 19.5,115.5C 12.8333,115.5 6.16667,115.5 -0.5,115.5C -0.5,98.5 -0.5,81.5 -0.5,64.5C 6.16667,64.5 12.8333,64.5 19.5,64.5C 19.4062,54.8534 23.7395,48.0201 32.5,44C 57.7709,42.6943 83.1042,42.0277 108.5,42C 144.053,28.1001 179.386,13.9334 214.5,-0.5 Z M 218.5,21.5 C 219.499,67.3303 219.832,113.33 219.5,159.5C 184.404,145.633 149.404,131.466 114.5,117C 113.508,98.9099 113.174,80.7433 113.5,62.5C 115.927,62.477 118.26,61.977 120.5,61C 153.075,47.5438 185.742,34.3772 218.5,21.5 Z M 40.5,64.5 C 57.8333,64.5 75.1667,64.5 92.5,64.5C 92.5,81.8333 92.5,99.1667 92.5,116.5C 75.1667,116.5 57.8333,116.5 40.5,116.5C 40.5,99.1667 40.5,81.8333 40.5,64.5 Z M 64.5,138.5 C 73.8333,138.5 83.1667,138.5 92.5,138.5C 92.5,152.833 92.5,167.167 92.5,181.5C 89.2234,181.784 86.0567,181.451 83,180.5C 76.5464,166.596 70.3798,152.596 64.5,138.5 Z"/></g>
<g><path style="opacity:0.251" fill="#08aff2" d="M 218.5,21.5 C 218.56,20.9569 218.893,20.6236 219.5,20.5C 219.833,43.8333 220.167,67.1667 220.5,90.5C 220.505,114.238 220.172,137.238 219.5,159.5C 219.832,113.33 219.499,67.3303 218.5,21.5 Z"/></g>
</svg>
