<?xml version="1.0" encoding="UTF-8"?>
<!DOCTYPE svg PUBLIC "-//W3C//DTD SVG 1.1//EN" "http://www.w3.org/Graphics/SVG/1.1/DTD/svg11.dtd">
<svg xmlns="http://www.w3.org/2000/svg" version="1.1" width="263px" height="263px" style="shape-rendering:geometricPrecision; text-rendering:geometricPrecision; image-rendering:optimizeQuality; fill-rule:evenodd; clip-rule:evenodd" xmlns:xlink="http://www.w3.org/1999/xlink">
<g><path style="opacity:0.991" fill="#09aef3" d="M 85.5,-0.5 C 94.8333,-0.5 104.167,-0.5 113.5,-0.5C 162.385,9.55275 191.218,39.2194 200,88.5C 202.618,117.308 194.784,142.808 176.5,165C 177.5,166 178.5,167 179.5,168C 183.833,168.333 188.167,168.667 192.5,169C 216.426,192.424 239.759,216.257 262.5,240.5C 262.5,244.167 262.5,247.833 262.5,251.5C 260.585,256.417 257.252,260.083 252.5,262.5C 248.5,262.5 244.5,262.5 240.5,262.5C 216.257,239.759 192.424,216.426 169,192.5C 168.667,188.167 168.333,183.833 168,179.5C 167,178.5 166,177.5 165,176.5C 127.962,204.785 88.7953,207.952 47.5,186C 20.8617,168.864 4.86174,144.698 -0.5,113.5C -0.5,104.167 -0.5,94.8333 -0.5,85.5C 6.51548,47.9926 27.5155,21.4926 62.5,6C 70.1627,3.33838 77.8294,1.17171 85.5,-0.5 Z M 94.5,30.5 C 127.154,30.3992 150.32,45.0659 164,74.5C 175.132,110.714 164.965,139.214 133.5,160C 98.656,175.947 68.8227,169.447 44,140.5C 25.7505,112.64 26.0839,84.9729 45,57.5C 58.0796,42.0467 74.5796,33.0467 94.5,30.5 Z"/></g>
</svg>
