<?xml version="1.0" encoding="UTF-8"?>
<!DOCTYPE svg PUBLIC "-//W3C//DTD SVG 1.1//EN" "http://www.w3.org/Graphics/SVG/1.1/DTD/svg11.dtd">
<svg xmlns="http://www.w3.org/2000/svg" version="1.1" width="323px" height="263px" style="shape-rendering:geometricPrecision; text-rendering:geometricPrecision; image-rendering:optimizeQuality; fill-rule:evenodd; clip-rule:evenodd" xmlns:xlink="http://www.w3.org/1999/xlink">
<g><path style="opacity:0.988" fill="#08aef3" d="M -0.5,-0.5 C 85.5,-0.5 171.5,-0.5 257.5,-0.5C 249.761,5.73287 242.428,12.5662 235.5,20C 163.834,20.5 92.1674,20.6667 20.5,20.5C 19.5044,33.6562 19.1711,46.9895 19.5,60.5C 77.6691,60.8324 135.669,60.499 193.5,59.5C 194.525,59.8966 194.692,60.5632 194,61.5C 187.833,67.6667 181.667,73.8333 175.5,80C 123.834,80.5 72.1677,80.6667 20.5,80.5C 20.5,134.167 20.5,187.833 20.5,241.5C 107.5,241.5 194.5,241.5 281.5,241.5C 281.333,209.832 281.5,178.165 282,146.5C 288.667,139.833 295.333,133.167 302,126.5C 302.5,171.832 302.667,217.165 302.5,262.5C 201.5,262.5 100.5,262.5 -0.5,262.5C -0.5,174.833 -0.5,87.1667 -0.5,-0.5 Z M 197.5,128.5 C 204.077,132.074 209.41,137.074 213.5,143.5C 208.167,149.5 202.5,155.167 196.5,160.5C 192.5,154.5 187.5,149.5 181.5,145.5C 186.855,139.813 192.188,134.146 197.5,128.5 Z M 155.5,161.5 C 167.521,159.59 175.688,164.256 180,175.5C 182.421,187.493 177.921,195.659 166.5,200C 156.5,200.667 146.5,200.667 136.5,200C 140.241,192.301 142.074,184.135 142,175.5C 144.687,168.981 149.187,164.314 155.5,161.5 Z"/></g>
<g><path style="opacity:0.989" fill="#08aef3" d="M 322.5,43.5 C 322.5,48.8333 322.5,54.1667 322.5,59.5C 320.546,64.065 318.046,68.3983 315,72.5C 277.333,110.167 239.667,147.833 202,185.5C 198.348,204.484 187.182,216.317 168.5,221C 132.168,221.5 95.8349,221.667 59.5,221.5C 59.5,214.833 59.5,208.167 59.5,201.5C 73.504,201.667 87.504,201.5 101.5,201C 110.193,200.234 116.026,195.734 119,187.5C 119.224,161.851 131.724,146.018 156.5,140C 195.194,100.972 234.194,62.3055 273.5,24C 289.279,16.2518 303.445,18.4185 316,30.5C 318.745,34.657 320.912,38.9904 322.5,43.5 Z M 286.5,40.5 C 299.595,39.7363 304.095,45.403 300,57.5C 276.333,81.1667 252.667,104.833 229,128.5C 224.5,122.667 219.333,117.5 213.5,113C 237.728,88.6046 262.062,64.4379 286.5,40.5 Z M 197.5,128.5 C 192.188,134.146 186.855,139.813 181.5,145.5C 187.5,149.5 192.5,154.5 196.5,160.5C 202.5,155.167 208.167,149.5 213.5,143.5C 209.41,137.074 204.077,132.074 197.5,128.5 Z M 155.5,161.5 C 149.187,164.314 144.687,168.981 142,175.5C 142.074,184.135 140.241,192.301 136.5,200C 146.5,200.667 156.5,200.667 166.5,200C 177.921,195.659 182.421,187.493 180,175.5C 175.688,164.256 167.521,159.59 155.5,161.5 Z"/></g>
<g><path style="opacity:0.354" fill="#08acf2" d="M 20.5,20.5 C 20.5,33.5 20.5,46.5 20.5,59.5C 78.1667,59.5 135.833,59.5 193.5,59.5C 135.669,60.499 77.6691,60.8324 19.5,60.5C 19.1711,46.9895 19.5044,33.6562 20.5,20.5 Z"/></g>
</svg>
