<?xml version="1.0" encoding="UTF-8"?>
<!DOCTYPE svg PUBLIC "-//W3C//DTD SVG 1.1//EN" "http://www.w3.org/Graphics/SVG/1.1/DTD/svg11.dtd">
<svg xmlns="http://www.w3.org/2000/svg" version="1.1" width="301px" height="301px" style="shape-rendering:geometricPrecision; text-rendering:geometricPrecision; image-rendering:optimizeQuality; fill-rule:evenodd; clip-rule:evenodd" xmlns:xlink="http://www.w3.org/1999/xlink">
<g><path style="opacity:0.991" fill="#08aef3" d="M 139.5,-0.5 C 146.167,-0.5 152.833,-0.5 159.5,-0.5C 174.416,3.94901 188.75,10.1157 202.5,18C 227.145,30.3189 251.145,43.6522 274.5,58C 290.692,70.5511 299.359,87.0511 300.5,107.5C 300.5,135.5 300.5,163.5 300.5,191.5C 299.514,212.292 290.848,229.125 274.5,242C 252.479,255.681 229.813,268.347 206.5,280C 191.656,288.262 176.323,295.095 160.5,300.5C 153.833,300.5 147.167,300.5 140.5,300.5C 125.584,296.051 111.25,289.884 97.5,282C 72.8554,269.681 48.8554,256.348 25.5,242C 9.30786,229.449 0.641195,212.949 -0.5,192.5C -0.5,164.5 -0.5,136.5 -0.5,108.5C 0.485651,87.7082 9.15232,70.8749 25.5,58C 47.5207,44.3194 70.1873,31.6528 93.5,20C 108.344,11.7382 123.677,4.90483 139.5,-0.5 Z M 148.5,20.5 C 153.941,21.1295 159.274,22.2962 164.5,24C 191.448,37.1406 218.115,50.8073 244.5,65C 251.913,69.2481 258.913,74.0814 265.5,79.5C 250.99,87.2554 236.323,94.7554 221.5,102C 219.711,102.52 218.044,102.187 216.5,101C 178.5,81 140.5,61 102.5,41C 116.853,31.6507 132.186,24.8173 148.5,20.5 Z M 78.5,52.5 C 117.473,73.3208 156.473,94.1541 195.5,115C 180.395,122.636 165.228,130.136 150,137.5C 111.772,118.636 73.6049,99.6358 35.5,80.5C 34.1667,79.8333 34.1667,79.1667 35.5,78.5C 38.6544,75.7567 41.9878,73.2567 45.5,71C 56.5623,64.8058 67.5623,58.6391 78.5,52.5 Z M 23.5,99.5 C 61.9348,118.217 100.268,137.217 138.5,156.5C 139.667,196.829 139.833,237.163 139,277.5C 110.839,264.003 83.0058,249.836 55.5,235C 45.4147,229.716 36.5813,222.883 29,214.5C 24.6565,207.452 22.3231,199.786 22,191.5C 19.6564,160.748 20.1564,130.081 23.5,99.5 Z M 274.5,99.5 C 275.75,99.5774 276.583,100.244 277,101.5C 279.879,131.463 280.213,161.463 278,191.5C 277.506,202.978 273.339,212.811 265.5,221C 260.442,225.057 255.108,228.724 249.5,232C 220.485,248.091 190.985,263.257 161,277.5C 160.167,237.163 160.333,196.829 161.5,156.5C 177.411,148.628 193.244,140.628 209,132.5C 209.333,144.5 209.667,156.5 210,168.5C 211.167,171 213,172.833 215.5,174C 221.89,175.942 226.723,174.109 230,168.5C 230.167,152.823 230.667,137.156 231.5,121.5C 246.051,114.392 260.384,107.059 274.5,99.5 Z"/></g>
</svg>
