<?xml version="1.0" encoding="UTF-8"?>
<!DOCTYPE svg PUBLIC "-//W3C//DTD SVG 1.1//EN" "http://www.w3.org/Graphics/SVG/1.1/DTD/svg11.dtd">
<svg xmlns="http://www.w3.org/2000/svg" version="1.1" width="300px" height="300px" style="shape-rendering:geometricPrecision; text-rendering:geometricPrecision; image-rendering:optimizeQuality; fill-rule:evenodd; clip-rule:evenodd" xmlns:xlink="http://www.w3.org/1999/xlink">
<g><path style="opacity:0.986" fill="#09aef3" d="M 184.5,-0.5 C 187.5,-0.5 190.5,-0.5 193.5,-0.5C 208.131,14.6319 222.965,29.6319 238,44.5C 253.062,29.271 268.228,14.271 283.5,-0.5C 286.167,-0.5 288.833,-0.5 291.5,-0.5C 296.566,3.05552 297.733,7.72218 295,13.5C 280.319,28.0139 265.819,42.6806 251.5,57.5C 265.819,72.3194 280.319,86.9861 295,101.5C 298.34,109.486 295.84,114.486 287.5,116.5C 285.459,115.764 283.459,114.931 281.5,114C 267,99.5 252.5,85 238,70.5C 223.167,85.3333 208.333,100.167 193.5,115C 182.65,117.484 178.484,113.317 181,102.5C 195.471,87.0286 210.304,71.862 225.5,57C 210.695,43.1959 196.195,29.0293 182,14.5C 178.273,8.64648 179.106,3.64648 184.5,-0.5 Z"/></g>
<g><path style="opacity:0.988" fill="#08aef3" d="M -0.5,113.5 C -0.5,110.167 -0.5,106.833 -0.5,103.5C 16.5591,74.3924 33.3925,45.0591 50,15.5C 53.9181,7.85749 60.0848,5.02416 68.5,7C 71.5616,8.06075 74.0616,9.89408 76,12.5C 92.7472,42.3296 109.747,71.9963 127,101.5C 130.821,112.357 127.321,119.524 116.5,123C 81.5,123.667 46.5,123.667 11.5,123C 5.85117,121.845 1.85117,118.678 -0.5,113.5 Z M 107.5,103.5 C 78.6715,104.498 49.6715,104.831 20.5,104.5C 34.9883,79.5275 49.4883,54.5275 64,29.5C 78.2743,54.3943 92.7743,79.0609 107.5,103.5 Z"/></g>
<g><path style="opacity:0.258" fill="#08abf2" d="M 107.5,103.5 C 108.043,103.56 108.376,103.893 108.5,104.5C 93.6667,104.833 78.8333,105.167 64,105.5C 48.7601,105.508 34.2601,105.175 20.5,104.5C 49.6715,104.831 78.6715,104.498 107.5,103.5 Z"/></g>
<g><path style="opacity:0.984" fill="#09aef3" d="M 75.5,299.5 C 67.8333,299.5 60.1667,299.5 52.5,299.5C 11.5891,286.364 -3.91091,258.698 6,216.5C 19.7058,185.226 43.5392,172.06 77.5,177C 107.937,185.693 124.271,205.859 126.5,237.5C 125.832,260.343 116.165,278.177 97.5,291C 90.3821,294.755 83.0488,297.588 75.5,299.5 Z M 55.5,194.5 C 82.3796,192.171 99.5463,203.838 107,229.5C 109.753,254.164 99.5864,270.997 76.5,280C 49.2258,285.029 31.0592,274.529 22,248.5C 18.1977,221.088 29.3644,203.088 55.5,194.5 Z"/></g>
<g><path style="opacity:0.995" fill="#08aef3" d="M 299.5,184.5 C 299.5,219.833 299.5,255.167 299.5,290.5C 297.475,294.525 294.475,297.525 290.5,299.5C 255.5,299.5 220.5,299.5 185.5,299.5C 181.095,297.588 178.261,294.255 177,289.5C 176.333,254.833 176.333,220.167 177,185.5C 179.04,180.124 182.873,176.957 188.5,176C 221.833,175.333 255.167,175.333 288.5,176C 293.212,177.553 296.879,180.386 299.5,184.5 Z M 194.5,194.5 C 223.5,194.5 252.5,194.5 281.5,194.5C 281.5,223.5 281.5,252.5 281.5,281.5C 252.5,281.5 223.5,281.5 194.5,281.5C 194.5,252.5 194.5,223.5 194.5,194.5 Z"/></g>
</svg>
