<svg xmlns="http://www.w3.org/2000/svg" xmlns:xlink="http://www.w3.org/1999/xlink" width="1080" zoomAndPan="magnify" viewBox="0 0 810 809.999993" height="1080" preserveAspectRatio="xMidYMid meet" version="1.0"><path fill="#09aff4" d="M 573.75 514.519531 L 573.75 746.449219 C 573.75 747.941406 573.554688 749.410156 573.167969 750.851562 C 572.777344 752.292969 572.207031 753.65625 571.457031 754.945312 C 570.703125 756.238281 569.796875 757.40625 568.734375 758.457031 C 567.675781 759.503906 566.492188 760.398438 565.195312 761.132812 C 563.894531 761.871094 562.523438 762.421875 561.078125 762.796875 C 559.632812 763.167969 558.164062 763.34375 556.671875 763.324219 C 555.175781 763.308594 553.714844 763.09375 552.277344 762.6875 C 550.839844 762.28125 549.480469 761.695312 548.203125 760.925781 L 405 675 L 261.796875 760.925781 C 260.515625 761.695312 259.15625 762.28125 257.71875 762.691406 C 256.28125 763.097656 254.816406 763.308594 253.320312 763.324219 C 251.828125 763.34375 250.355469 763.164062 248.910156 762.792969 C 247.460938 762.417969 246.089844 761.863281 244.789062 761.125 C 243.492188 760.386719 242.308594 759.492188 241.25 758.441406 C 240.1875 757.390625 239.28125 756.21875 238.53125 754.925781 C 237.78125 753.632812 237.210938 752.265625 236.824219 750.820312 C 236.4375 749.378906 236.246094 747.910156 236.25 746.414062 L 236.25 514.550781 C 232.640625 511.660156 229.105469 508.679688 225.648438 505.605469 C 222.191406 502.535156 218.8125 499.375 215.519531 496.128906 C 212.222656 492.882812 209.011719 489.554688 205.890625 486.144531 C 202.765625 482.730469 199.730469 479.242188 196.785156 475.675781 C 193.839844 472.109375 190.988281 468.46875 188.230469 464.753906 C 185.472656 461.039062 182.8125 457.257812 180.25 453.40625 C 177.6875 449.558594 175.222656 445.644531 172.863281 441.667969 C 170.5 437.691406 168.242188 433.65625 166.085938 429.5625 C 163.929688 425.46875 161.882812 421.324219 159.941406 417.125 C 158 412.925781 156.167969 408.679688 154.441406 404.386719 C 152.71875 400.097656 151.105469 395.761719 149.605469 391.386719 C 148.105469 387.011719 146.71875 382.601562 145.445312 378.152344 C 144.171875 373.707031 143.011719 369.230469 141.96875 364.722656 C 140.921875 360.21875 139.996094 355.6875 139.183594 351.132812 C 138.375 346.578125 137.679688 342.007812 137.101562 337.417969 C 136.527344 332.828125 136.070312 328.226562 135.730469 323.613281 C 135.390625 319 135.167969 314.382812 135.066406 309.757812 C 134.964844 305.132812 134.980469 300.507812 135.117188 295.886719 C 135.25 291.261719 135.503906 286.644531 135.878906 282.035156 C 136.25 277.421875 136.742188 272.824219 137.351562 268.238281 C 137.957031 263.65625 138.683594 259.085938 139.527344 254.539062 C 140.371094 249.992188 141.332031 245.46875 142.410156 240.96875 C 143.484375 236.472656 144.675781 232.003906 145.980469 227.566406 C 147.285156 223.128906 148.707031 218.726562 150.238281 214.363281 C 151.769531 209.996094 153.414062 205.675781 155.167969 201.394531 C 156.921875 197.113281 158.785156 192.882812 160.753906 188.699219 C 162.726562 184.515625 164.804688 180.382812 166.988281 176.304688 C 169.171875 172.226562 171.460938 168.210938 173.851562 164.25 C 176.242188 160.289062 178.730469 156.394531 181.324219 152.5625 C 183.914062 148.730469 186.601562 144.964844 189.386719 141.273438 C 192.167969 137.578125 195.046875 133.957031 198.015625 130.410156 C 200.988281 126.867188 204.046875 123.398438 207.195312 120.007812 C 210.34375 116.621094 213.578125 113.316406 216.894531 110.09375 C 220.210938 106.871094 223.613281 103.734375 227.089844 100.6875 C 230.570312 97.640625 234.125 94.683594 237.757812 91.816406 C 241.390625 88.953125 245.089844 86.183594 248.867188 83.507812 C 252.640625 80.832031 256.480469 78.253906 260.386719 75.777344 C 264.292969 73.300781 268.257812 70.925781 272.285156 68.652344 C 276.316406 66.378906 280.398438 64.210938 284.539062 62.144531 C 288.679688 60.082031 292.867188 58.125 297.109375 56.277344 C 301.347656 54.429688 305.632812 52.691406 309.964844 51.0625 C 314.292969 49.433594 318.660156 47.917969 323.070312 46.515625 C 327.476562 45.109375 331.917969 43.820312 336.390625 42.644531 C 340.867188 41.472656 345.367188 40.410156 349.894531 39.46875 C 354.421875 38.523438 358.972656 37.695312 363.542969 36.984375 C 368.113281 36.273438 372.699219 35.683594 377.300781 35.207031 C 381.902344 34.734375 386.511719 34.378906 391.132812 34.140625 C 395.75 33.902344 400.375 33.785156 405 33.785156 C 409.625 33.785156 414.25 33.902344 418.867188 34.140625 C 423.488281 34.378906 428.097656 34.734375 432.699219 35.207031 C 437.300781 35.683594 441.886719 36.273438 446.457031 36.984375 C 451.027344 37.695312 455.578125 38.523438 460.105469 39.46875 C 464.632812 40.410156 469.136719 41.472656 473.609375 42.644531 C 478.082031 43.820312 482.523438 45.109375 486.929688 46.515625 C 491.339844 47.917969 495.707031 49.433594 500.035156 51.0625 C 504.367188 52.691406 508.652344 54.429688 512.890625 56.277344 C 517.132812 58.125 521.320312 60.082031 525.460938 62.144531 C 529.601562 64.210938 533.683594 66.378906 537.714844 68.652344 C 541.742188 70.925781 545.707031 73.300781 549.613281 75.777344 C 553.519531 78.257812 557.359375 80.832031 561.136719 83.507812 C 564.910156 86.183594 568.609375 88.953125 572.242188 91.816406 C 575.875 94.683594 579.429688 97.640625 582.910156 100.6875 C 586.386719 103.734375 589.789062 106.871094 593.105469 110.09375 C 596.425781 113.316406 599.65625 116.621094 602.804688 120.011719 C 605.953125 123.398438 609.011719 126.867188 611.984375 130.410156 C 614.953125 133.957031 617.832031 137.578125 620.613281 141.273438 C 623.398438 144.964844 626.085938 148.730469 628.675781 152.5625 C 631.269531 156.394531 633.757812 160.289062 636.148438 164.25 C 638.539062 168.210938 640.828125 172.226562 643.011719 176.304688 C 645.195312 180.382812 647.273438 184.515625 649.246094 188.699219 C 651.214844 192.882812 653.078125 197.113281 654.832031 201.394531 C 656.585938 205.675781 658.230469 209.996094 659.761719 214.363281 C 661.292969 218.726562 662.714844 223.128906 664.019531 227.566406 C 665.324219 232.003906 666.515625 236.472656 667.589844 240.96875 C 668.667969 245.46875 669.628906 249.992188 670.472656 254.539062 C 671.316406 259.089844 672.042969 263.65625 672.648438 268.238281 C 673.257812 272.824219 673.75 277.421875 674.121094 282.035156 C 674.496094 286.644531 674.75 291.261719 674.882812 295.886719 C 675.019531 300.507812 675.035156 305.132812 674.933594 309.757812 C 674.832031 314.382812 674.609375 319 674.269531 323.613281 C 673.929688 328.226562 673.472656 332.828125 672.898438 337.417969 C 672.320312 342.007812 671.628906 346.578125 670.816406 351.132812 C 670.003906 355.6875 669.078125 360.21875 668.03125 364.722656 C 666.988281 369.230469 665.828125 373.707031 664.554688 378.152344 C 663.28125 382.601562 661.894531 387.011719 660.394531 391.386719 C 658.894531 395.761719 657.28125 400.097656 655.558594 404.386719 C 653.832031 408.679688 652 412.925781 650.058594 417.125 C 648.117188 421.324219 646.070312 425.46875 643.914062 429.5625 C 641.757812 433.65625 639.5 437.691406 637.136719 441.667969 C 634.777344 445.644531 632.3125 449.558594 629.75 453.40625 C 627.1875 457.257812 624.527344 461.039062 621.769531 464.753906 C 619.011719 468.46875 616.160156 472.109375 613.214844 475.675781 C 610.269531 479.242188 607.234375 482.730469 604.109375 486.144531 C 600.988281 489.554688 597.777344 492.882812 594.480469 496.128906 C 591.1875 499.375 587.808594 502.535156 584.351562 505.605469 C 580.894531 508.679688 577.359375 511.660156 573.75 514.550781 Z M 303.75 554.109375 L 303.75 657.046875 L 405 596.296875 L 506.25 657.046875 L 506.25 554.109375 C 490.164062 560.613281 473.605469 565.519531 456.574219 568.820312 C 439.542969 572.125 422.351562 573.769531 405 573.75 C 387.648438 573.769531 370.457031 572.125 353.425781 568.820312 C 336.394531 565.519531 319.835938 560.613281 303.75 554.109375 Z M 405 506.25 C 408.3125 506.25 411.625 506.167969 414.9375 506.007812 C 418.246094 505.84375 421.550781 505.601562 424.847656 505.273438 C 428.148438 504.949219 431.433594 504.542969 434.710938 504.058594 C 437.992188 503.570312 441.253906 503.003906 444.503906 502.359375 C 447.757812 501.710938 450.988281 500.988281 454.203125 500.179688 C 457.417969 499.375 460.609375 498.492188 463.78125 497.53125 C 466.953125 496.566406 470.101562 495.527344 473.21875 494.414062 C 476.339844 493.296875 479.429688 492.105469 482.492188 490.835938 C 485.554688 489.566406 488.582031 488.226562 491.578125 486.808594 C 494.574219 485.390625 497.535156 483.902344 500.457031 482.339844 C 503.378906 480.777344 506.261719 479.144531 509.105469 477.441406 C 511.949219 475.734375 514.746094 473.964844 517.503906 472.121094 C 520.257812 470.28125 522.96875 468.375 525.628906 466.398438 C 528.289062 464.425781 530.902344 462.386719 533.464844 460.285156 C 536.027344 458.183594 538.535156 456.019531 540.992188 453.792969 C 543.445312 451.566406 545.84375 449.28125 548.1875 446.9375 C 550.53125 444.59375 552.816406 442.195312 555.042969 439.742188 C 557.269531 437.285156 559.433594 434.777344 561.535156 432.214844 C 563.636719 429.652344 565.675781 427.039062 567.648438 424.378906 C 569.625 421.71875 571.53125 419.007812 573.371094 416.253906 C 575.214844 413.496094 576.984375 410.699219 578.691406 407.855469 C 580.394531 405.011719 582.027344 402.128906 583.589844 399.207031 C 585.152344 396.285156 586.640625 393.324219 588.058594 390.328125 C 589.476562 387.335938 590.816406 384.304688 592.085938 381.242188 C 593.355469 378.179688 594.546875 375.089844 595.664062 371.96875 C 596.777344 368.851562 597.816406 365.703125 598.78125 362.53125 C 599.742188 359.359375 600.625 356.167969 601.429688 352.953125 C 602.238281 349.738281 602.960938 346.507812 603.609375 343.253906 C 604.253906 340.003906 604.820312 336.742188 605.308594 333.460938 C 605.792969 330.183594 606.199219 326.898438 606.523438 323.597656 C 606.851562 320.300781 607.09375 316.996094 607.257812 313.6875 C 607.417969 310.375 607.5 307.0625 607.5 303.75 C 607.5 300.4375 607.417969 297.125 607.257812 293.8125 C 607.09375 290.503906 606.851562 287.199219 606.523438 283.902344 C 606.199219 280.601562 605.792969 277.316406 605.308594 274.035156 C 604.820312 270.757812 604.253906 267.496094 603.609375 264.246094 C 602.960938 260.992188 602.238281 257.761719 601.429688 254.546875 C 600.625 251.332031 599.742188 248.136719 598.78125 244.96875 C 597.816406 241.796875 596.777344 238.648438 595.664062 235.53125 C 594.546875 232.410156 593.355469 229.316406 592.085938 226.257812 C 590.816406 223.195312 589.476562 220.164062 588.058594 217.171875 C 586.640625 214.175781 585.152344 211.214844 583.589844 208.292969 C 582.027344 205.371094 580.394531 202.488281 578.691406 199.644531 C 576.984375 196.800781 575.214844 194.003906 573.371094 191.246094 C 571.53125 188.492188 569.625 185.78125 567.648438 183.121094 C 565.675781 180.460938 563.636719 177.847656 561.535156 175.285156 C 559.433594 172.722656 557.269531 170.214844 555.042969 167.757812 C 552.816406 165.304688 550.53125 162.902344 548.1875 160.5625 C 545.84375 158.21875 543.445312 155.933594 540.992188 153.707031 C 538.535156 151.480469 536.027344 149.316406 533.464844 147.214844 C 530.902344 145.113281 528.289062 143.074219 525.628906 141.101562 C 522.96875 139.125 520.257812 137.21875 517.503906 135.378906 C 514.746094 133.535156 511.949219 131.765625 509.105469 130.058594 C 506.261719 128.355469 503.378906 126.722656 500.457031 125.160156 C 497.535156 123.597656 494.574219 122.109375 491.578125 120.691406 C 488.582031 119.273438 485.554688 117.933594 482.492188 116.664062 C 479.429688 115.394531 476.339844 114.203125 473.21875 113.085938 C 470.101562 111.972656 466.953125 110.929688 463.78125 109.96875 C 460.609375 109.007812 457.417969 108.125 454.203125 107.320312 C 450.988281 106.511719 447.757812 105.789062 444.503906 105.140625 C 441.253906 104.496094 437.992188 103.929688 434.714844 103.441406 C 431.433594 102.957031 428.148438 102.550781 424.847656 102.226562 C 421.550781 101.898438 418.246094 101.65625 414.9375 101.492188 C 411.625 101.332031 408.3125 101.25 405 101.25 C 401.6875 101.25 398.375 101.332031 395.0625 101.492188 C 391.753906 101.65625 388.449219 101.898438 385.152344 102.226562 C 381.851562 102.550781 378.566406 102.957031 375.285156 103.441406 C 372.007812 103.929688 368.746094 104.496094 365.492188 105.140625 C 362.242188 105.789062 359.011719 106.511719 355.796875 107.320312 C 352.582031 108.125 349.390625 109.007812 346.21875 109.96875 C 343.046875 110.929688 339.898438 111.972656 336.78125 113.085938 C 333.660156 114.203125 330.566406 115.394531 327.507812 116.664062 C 324.445312 117.933594 321.414062 119.273438 318.421875 120.691406 C 315.425781 122.109375 312.464844 123.597656 309.542969 125.160156 C 306.621094 126.722656 303.738281 128.355469 300.894531 130.058594 C 298.050781 131.765625 295.253906 133.535156 292.496094 135.378906 C 289.742188 137.21875 287.03125 139.125 284.371094 141.101562 C 281.707031 143.074219 279.097656 145.113281 276.535156 147.214844 C 273.972656 149.316406 271.464844 151.480469 269.007812 153.707031 C 266.554688 155.933594 264.152344 158.21875 261.8125 160.5625 C 259.46875 162.902344 257.183594 165.304688 254.957031 167.757812 C 252.730469 170.214844 250.566406 172.722656 248.464844 175.285156 C 246.363281 177.847656 244.324219 180.460938 242.351562 183.121094 C 240.375 185.78125 238.46875 188.492188 236.628906 191.246094 C 234.785156 194.003906 233.015625 196.800781 231.308594 199.644531 C 229.605469 202.488281 227.972656 205.371094 226.410156 208.292969 C 224.847656 211.214844 223.359375 214.175781 221.941406 217.171875 C 220.523438 220.164062 219.183594 223.195312 217.914062 226.257812 C 216.644531 229.316406 215.453125 232.410156 214.335938 235.53125 C 213.222656 238.648438 212.179688 241.796875 211.21875 244.96875 C 210.257812 248.140625 209.375 251.332031 208.570312 254.546875 C 207.761719 257.761719 207.039062 260.992188 206.390625 264.246094 C 205.746094 267.496094 205.179688 270.757812 204.691406 274.035156 C 204.207031 277.316406 203.800781 280.601562 203.476562 283.902344 C 203.148438 287.199219 202.90625 290.503906 202.742188 293.8125 C 202.582031 297.125 202.5 300.4375 202.5 303.75 C 202.5 307.0625 202.582031 310.375 202.742188 313.6875 C 202.90625 316.996094 203.148438 320.300781 203.476562 323.597656 C 203.800781 326.898438 204.207031 330.183594 204.691406 333.460938 C 205.179688 336.742188 205.746094 340.003906 206.390625 343.253906 C 207.039062 346.507812 207.761719 349.738281 208.570312 352.953125 C 209.375 356.167969 210.257812 359.359375 211.21875 362.53125 C 212.179688 365.703125 213.222656 368.851562 214.335938 371.96875 C 215.453125 375.089844 216.644531 378.179688 217.914062 381.242188 C 219.183594 384.304688 220.523438 387.332031 221.941406 390.328125 C 223.359375 393.324219 224.847656 396.285156 226.410156 399.207031 C 227.972656 402.128906 229.605469 405.011719 231.308594 407.855469 C 233.015625 410.699219 234.785156 413.496094 236.628906 416.253906 C 238.46875 419.007812 240.375 421.71875 242.351562 424.378906 C 244.324219 427.039062 246.363281 429.652344 248.464844 432.214844 C 250.566406 434.777344 252.730469 437.285156 254.957031 439.742188 C 257.183594 442.195312 259.46875 444.59375 261.8125 446.9375 C 264.152344 449.28125 266.554688 451.566406 269.007812 453.792969 C 271.464844 456.019531 273.972656 458.183594 276.535156 460.285156 C 279.097656 462.386719 281.707031 464.425781 284.371094 466.398438 C 287.03125 468.375 289.742188 470.28125 292.496094 472.121094 C 295.253906 473.964844 298.050781 475.734375 300.894531 477.441406 C 303.738281 479.144531 306.621094 480.777344 309.542969 482.339844 C 312.464844 483.902344 315.425781 485.390625 318.421875 486.808594 C 321.414062 488.226562 324.445312 489.566406 327.507812 490.835938 C 330.566406 492.105469 333.660156 493.296875 336.78125 494.414062 C 339.898438 495.527344 343.046875 496.566406 346.21875 497.53125 C 349.390625 498.492188 352.582031 499.375 355.796875 500.179688 C 359.011719 500.988281 362.242188 501.710938 365.492188 502.359375 C 368.746094 503.003906 372.007812 503.570312 375.285156 504.058594 C 378.566406 504.542969 381.851562 504.949219 385.152344 505.273438 C 388.449219 505.601562 391.753906 505.84375 395.0625 506.007812 C 398.375 506.167969 401.6875 506.25 405 506.25 Z M 405 506.25 " fill-opacity="1" fill-rule="nonzero"/></svg>